<svg xmlns="http://www.w3.org/2000/svg" version="1.1" xmlns:xlink="http://www.w3.org/1999/xlink" xmlns:svgjs="http://svgjs.dev/svgjs" width="16" height="16"><svg width="16" height="16" viewBox="0 0 16 16" fill="none" xmlns="http://www.w3.org/2000/svg">
<path d="M8.02972 0.999979C8.17267 1.01296 8.57997 1.16023 8.74335 1.21156L12.1287 2.23228C12.2308 2.26275 12.4782 2.29999 12.5213 2.41566C12.6013 2.63289 12.0975 2.69327 11.9642 2.73107C11.5768 2.83997 11.1031 2.95902 10.7276 3.08937C10.7185 3.24341 10.7276 3.40253 10.7276 3.55657V4.4368C10.7276 4.59027 10.7321 4.74375 10.7276 4.89666C10.8053 4.93785 10.8773 4.99202 10.95 5.04223C13.0295 6.49522 13.6286 9.51156 12.2791 11.6433C11.1961 13.353 9.16189 14.2862 7.1452 13.9217C6.95971 13.8934 6.77591 13.8404 6.59666 13.7857C4.51303 13.1503 2.96904 11.2173 3.00128 9.02746C3.02113 7.64844 3.62811 6.28745 4.6674 5.37007C4.77745 5.27245 4.89827 5.185 5.00435 5.08286C4.86424 4.86901 4.71561 4.65686 4.58741 4.43623C4.50289 4.58689 4.21472 5.09922 4.06212 5.14323L4.0468 5.13984C3.96625 5.12179 3.93845 5.09922 3.89477 5.03207C3.88456 4.79453 4.3554 4.35104 4.4212 4.11461C4.4558 3.98991 4.43254 2.99064 4.4297 2.8174C4.23514 2.75421 4.03546 2.70286 3.83974 2.64362C3.70303 2.60243 3.57199 2.60299 3.52662 2.45234C3.53172 2.42526 3.53569 2.38689 3.55385 2.36545C3.62986 2.27517 4.28109 2.11944 4.41666 2.07881L6.77418 1.37069C6.94493 1.32047 7.11738 1.27477 7.28699 1.22059L7.66366 1.1021C7.78279 1.06373 7.90549 1.01578 8.02972 0.999979ZM5.89903 9.28313C5.82188 10.2119 6.16338 11.5869 6.57636 12.3921C6.83333 12.8925 7.30416 13.5815 7.91852 13.6272C8.49316 13.6706 8.96741 13.204 9.24423 12.7492C9.81207 11.8301 10.1887 10.3868 10.1348 9.28309L5.89903 9.28313ZM5.61484 3.18083C5.60803 3.46464 5.61484 3.75016 5.61484 4.03397V5.75606C6.8027 6.62105 8.99747 6.69102 10.2517 5.86157C10.3056 5.82546 10.3584 5.78427 10.4174 5.75606V3.18086C10.1162 3.26494 9.81778 3.35861 9.51713 3.44605L8.45746 3.75357C7.85899 3.93469 7.99854 3.87939 7.37682 3.69771L6.14868 3.33546C5.97112 3.28355 5.7941 3.22767 5.61484 3.18083ZM9.64864 6.49011C8.40462 6.86928 7.59173 6.83373 6.38059 6.49011C6.13666 7.15761 5.87912 8.24485 5.89897 8.97329C5.97215 8.97216 6.04476 8.97103 6.11794 8.97329H10.1348C10.116 8.24541 9.985 7.40128 9.73709 6.714C9.71951 6.66491 9.67757 6.52228 9.64864 6.49011ZM8.02972 1.31545C7.36828 1.50052 6.71478 1.71606 6.05558 1.91129L4.76901 2.29497C4.59316 2.34801 4.41503 2.39202 4.24145 2.45239C4.59543 2.54154 4.94146 2.65551 5.2909 2.7599L7.73759 3.48214C7.79375 3.49963 7.97754 3.57749 8.02973 3.55887C8.1551 3.52389 8.27819 3.48326 8.40299 3.44715L11.4226 2.56242C11.5491 2.52461 11.6841 2.50091 11.8066 2.45239C11.4214 2.34405 8.04162 1.3132 8.02972 1.31545ZM10.4423 9.28313C10.4553 10.8297 10.0367 12.5252 8.88507 13.6278C9.49205 13.445 9.94417 13.344 10.5075 12.9862C11.857 12.1213 12.5984 10.8528 12.6983 9.28307L10.4423 9.28313ZM5.38103 9.28313H3.31845C3.44779 10.9561 4.20623 12.1235 5.64432 13.0337C6.21101 13.3728 6.5667 13.4287 7.14532 13.6278C6.00114 12.6669 5.56836 10.7401 5.5887 9.28317C5.51835 9.27809 5.45137 9.27692 5.38103 9.28313ZM5.30501 5.26C4.13417 6.0618 3.3059 7.5424 3.31839 8.97329H5.58863C5.66124 8.0406 5.73102 7.27214 6.09464 6.37715C5.92787 6.288 5.36627 6.04706 5.31464 5.87159C5.2772 5.74463 5.32147 5.4146 5.30501 5.26ZM10.7276 5.26C10.7276 5.38639 10.7446 5.75766 10.7145 5.85584C10.647 6.0742 10.1546 6.25251 9.94303 6.37721C10.0054 6.49739 10.0429 6.64523 10.082 6.77444C10.2409 7.30314 10.491 8.40741 10.4173 8.97335C10.9193 8.98407 11.4253 8.97335 11.9279 8.97335H12.6982C12.6908 7.79521 12.1741 6.58435 11.3317 5.75768C11.1864 5.61492 10.904 5.34915 10.7276 5.26ZM4.73778 2.91664C4.7287 3.28848 4.72076 3.73931 4.73778 4.11002C4.80075 4.21892 5.23301 4.91688 5.29598 4.94171L5.30506 4.94115C5.31243 4.88698 5.30619 4.82999 5.30619 4.77527L5.30563 3.52095C5.30619 3.37876 5.31697 3.23149 5.30506 3.0893C5.12183 3.01595 4.92554 2.97701 4.73778 2.91664Z" fill="#4B7982" style="fill:#4B7982;fill:color(display-p3 0.2941 0.4745 0.5098);fill-opacity:1;"></path>
<path fill-rule="evenodd" clip-rule="evenodd" d="M8.0478 0.800798L8.0261 0.798828L4.35925 1.88723L3.47266 2.11614C3.47266 2.11614 3.23632 2.23496 3.24473 2.43929C3.25314 2.64362 3.41751 2.71288 3.41751 2.71288L4.23244 2.9655C4.23493 3.0991 4.23826 3.29343 4.23949 3.48549C4.24041 3.62835 4.24015 3.76806 4.23758 3.87904C4.23629 3.93468 4.23445 3.98132 4.23207 4.01671C4.22979 4.05043 4.2279 4.0631 4.2279 4.0631C4.22023 4.08846 4.19551 4.13638 4.14419 4.21208C4.10757 4.26612 4.06592 4.32238 4.0208 4.38333L3.96815 4.45471C3.90565 4.54001 3.83904 4.63394 3.78865 4.72458C3.74208 4.80838 3.68987 4.92238 3.69495 5.04066L3.6973 5.0953L3.72713 5.14114C3.75233 5.17988 3.78644 5.22778 3.83959 5.2663C3.89407 5.30579 3.95229 5.32362 4.00364 5.33513L4.06865 5.3495L4.11754 5.33539C4.17414 5.31907 4.2199 5.28717 4.25162 5.26124C4.28562 5.23344 4.31769 5.20061 4.34681 5.16752C4.4051 5.1013 4.46371 5.02009 4.51666 4.94072C4.54268 4.90172 4.56811 4.86199 4.59229 4.82311C4.63691 4.89157 4.68202 4.95915 4.72632 5.02553L4.7414 5.04813L4.71069 5.07339L4.68272 5.09623C4.63518 5.13499 4.58387 5.17683 4.53483 5.22031C3.45219 6.17607 2.82196 7.59092 2.8013 9.02451C2.76766 11.3115 4.37763 13.3181 6.53833 13.977C6.71713 14.0316 6.91214 14.0883 7.11234 14.119C9.21061 14.4971 11.3234 13.5259 12.448 11.7503C13.8546 9.52833 13.2311 6.39206 11.0637 4.87774L11.0255 4.85098C10.9964 4.83044 10.9639 4.80755 10.9295 4.78487C10.9299 4.71704 10.9292 4.649 10.9286 4.58286C10.9281 4.53277 10.9276 4.48378 10.9276 4.4368V3.55657C10.9276 3.49669 10.9265 3.44086 10.9254 3.38724C10.9244 3.33486 10.9234 3.2846 10.9235 3.23474C11.1643 3.15699 11.4341 3.08357 11.6948 3.0126C11.8052 2.98254 11.9145 2.9528 12.0188 2.92348C12.0348 2.91895 12.0567 2.91429 12.0887 2.9075C12.1089 2.90322 12.133 2.8981 12.1621 2.89163C12.2288 2.87682 12.3114 2.85685 12.3895 2.82917C12.4628 2.8032 12.5559 2.76255 12.6258 2.69505C12.6629 2.65913 12.6998 2.60954 12.7182 2.54455C12.7373 2.47719 12.7317 2.40836 12.7087 2.3458C12.6772 2.26132 12.6151 2.20762 12.5658 2.17526C12.5153 2.14211 12.4597 2.11926 12.4123 2.10294C12.3639 2.08625 12.3153 2.07344 12.2757 2.06353L12.2402 2.05471C12.2166 2.0489 12.1997 2.04473 12.1859 2.04063L8.8033 1.02076L8.80222 1.02042C8.76042 1.00727 8.71235 0.991127 8.65711 0.972575C8.59439 0.951513 8.52242 0.927343 8.43985 0.90091C8.30674 0.858297 8.14593 0.809707 8.0478 0.800798ZM7.1452 13.9217C9.16189 14.2862 11.1961 13.353 12.2791 11.6433C13.6286 9.51156 13.0295 6.49522 10.95 5.04223L10.9055 5.01112C10.8477 4.97043 10.7894 4.92944 10.7276 4.89666C10.7306 4.79474 10.7296 4.69257 10.7286 4.59031C10.7281 4.53916 10.7276 4.48798 10.7276 4.4368V3.55657C10.7276 3.50541 10.7266 3.45369 10.7256 3.40178C10.7236 3.2974 10.7215 3.19225 10.7276 3.08937C11.0057 2.99284 11.3376 2.9025 11.6485 2.81789C11.7574 2.78825 11.8637 2.75932 11.9642 2.73107C11.9865 2.72476 12.0191 2.71782 12.0575 2.70963C12.2494 2.66874 12.5879 2.59663 12.5213 2.41566C12.4861 2.32125 12.3149 2.27909 12.1976 2.25022C12.1712 2.24371 12.1475 2.23788 12.1287 2.23228L8.74335 1.21156C8.70457 1.19938 8.65206 1.18179 8.5926 1.16188C8.40153 1.09789 8.13874 1.00988 8.02972 0.999979C7.93086 1.01255 7.83297 1.04549 7.73708 1.07775C7.71247 1.08603 7.68799 1.09427 7.66366 1.1021L7.28699 1.22059C7.17676 1.2558 7.06532 1.28743 6.95394 1.31905C6.89394 1.33608 6.83396 1.35311 6.77418 1.37069L4.41666 2.07881C4.38922 2.08703 4.34064 2.09998 4.27998 2.11614C4.04099 2.17981 3.61447 2.29344 3.55385 2.36545C3.53846 2.38362 3.53326 2.41397 3.52892 2.43929L3.52662 2.45234C3.56337 2.57439 3.65636 2.59719 3.76303 2.62335C3.78803 2.62948 3.81379 2.6358 3.83974 2.64362C3.91884 2.66756 3.99859 2.69021 4.07838 2.71288C4.19602 2.7463 4.31377 2.77975 4.4297 2.8174L4.43112 2.89386C4.43666 3.1844 4.45229 4.00256 4.4212 4.11461C4.39265 4.21717 4.28788 4.3587 4.17923 4.50548C4.03742 4.69706 3.88899 4.89758 3.89477 5.03207C3.93845 5.09922 3.96625 5.12179 4.0468 5.13984L4.06212 5.14323C4.1711 5.1118 4.34923 4.84151 4.47294 4.63468C4.52245 4.55191 4.56325 4.4793 4.58741 4.43623C4.6256 4.50196 4.66561 4.56693 4.70666 4.63142C4.7662 4.72495 4.82794 4.81746 4.88955 4.90978C4.92806 4.96749 4.96652 5.02511 5.00435 5.08286C4.9423 5.14261 4.8752 5.19733 4.80817 5.252C4.7606 5.29079 4.71307 5.32955 4.6674 5.37007C3.62811 6.28745 3.02113 7.64844 3.00128 9.02746C2.96904 11.2173 4.51303 13.1503 6.59666 13.7857C6.77591 13.8404 6.95971 13.8934 7.1452 13.9217Z" fill="#4B7982" style="fill:#4B7982;fill:color(display-p3 0.2941 0.4745 0.5098);fill-opacity:1;"></path>
<path fill-rule="evenodd" clip-rule="evenodd" d="M5.30563 3.52095C5.3058 3.47704 5.30695 3.43264 5.3081 3.38806C5.31069 3.28828 5.31329 3.18758 5.30506 3.0893C5.19236 3.04418 5.07471 3.01208 4.95715 2.98001L4.93645 2.97436C4.8698 2.95615 4.80327 2.9377 4.73778 2.91664C4.73614 2.9837 4.73454 3.05333 4.73312 3.1246C4.72665 3.44849 4.72383 3.80617 4.73778 4.11002C4.77695 4.17775 4.95898 4.47337 5.10616 4.69317C5.12551 4.72208 5.14427 4.74967 5.16201 4.77527C5.22176 4.86143 5.27014 4.92495 5.2916 4.93932L5.29598 4.94171L5.30506 4.94115C5.30639 4.9314 5.30727 4.92156 5.30783 4.91166C5.30941 4.88377 5.30841 4.85539 5.30742 4.82718C5.3068 4.80976 5.30619 4.7924 5.30619 4.77527L5.30563 3.52095ZM5.10563 3.52104C5.10584 3.46701 5.10715 3.4166 5.1084 3.36972C5.10967 3.32183 5.11086 3.27669 5.11074 3.23231C5.06565 3.21792 5.01877 3.20443 4.96971 3.19084L4.93209 3.1805C4.92673 3.47056 4.92486 3.78078 4.93546 4.05115C4.97143 4.11074 5.03491 4.21365 5.10599 4.32572L5.10563 3.52104Z" fill="#4B7982" style="fill:#4B7982;fill:color(display-p3 0.2941 0.4745 0.5098);fill-opacity:1;"></path>
<path fill-rule="evenodd" clip-rule="evenodd" d="M11.4502 2.34724C11.0005 2.21272 10.2357 1.98105 9.54324 1.77128C8.74065 1.52814 8.03515 1.31442 8.02972 1.31545C7.6337 1.42625 7.24054 1.54798 6.84729 1.66973C6.58372 1.75133 6.32011 1.83295 6.05558 1.91129L4.76901 2.29497C4.71373 2.31165 4.65822 2.32743 4.60269 2.34311L4.58163 2.34905C4.46757 2.38124 4.35356 2.4134 4.24145 2.45239C4.36244 2.48286 4.4825 2.51623 4.60209 2.55113C4.73424 2.58969 4.86581 2.63012 4.99741 2.67056C5.09514 2.70059 5.19289 2.73062 5.2909 2.7599L7.73759 3.48214C7.75 3.486 7.76865 3.49282 7.79073 3.50089C7.86856 3.52933 7.98907 3.57338 8.02973 3.55887C8.09958 3.53938 8.16872 3.51814 8.23785 3.4969C8.29279 3.48002 8.34772 3.46314 8.40299 3.44715L11.4226 2.56242L11.4475 2.55517C11.486 2.54426 11.5252 2.5344 11.5644 2.52452L11.4502 2.34724L11.3658 2.37064C11.3935 2.36237 11.4221 2.35459 11.4502 2.34724ZM11.0959 2.44972C10.7084 2.3331 10.2066 2.1812 9.72021 2.03386L9.48512 1.96264C9.12266 1.85284 8.78011 1.74907 8.51289 1.66837C8.35064 1.61937 8.21637 1.57893 8.12236 1.55084L8.02953 1.52326C7.65343 1.62947 7.28389 1.74391 6.91153 1.85922C6.64773 1.94092 6.38252 2.02305 6.11256 2.103L4.95482 2.44826L5.06097 2.48084C5.1575 2.5105 5.25319 2.5399 5.34783 2.56817L7.79707 3.29116C7.81416 3.29648 7.83749 3.30502 7.858 3.31253L7.85947 3.31307L7.86816 3.31625C7.89398 3.32567 7.92091 3.33538 7.94694 3.34383C7.9693 3.35109 7.98735 3.35622 8.00065 3.35928C8.06194 3.34182 8.11687 3.32489 8.17375 3.30735C8.22746 3.29079 8.2829 3.2737 8.34707 3.25513L11.0959 2.44972Z" fill="#4B7982" style="fill:#4B7982;fill:color(display-p3 0.2941 0.4745 0.5098);fill-opacity:1;"></path>
<path fill-rule="evenodd" clip-rule="evenodd" d="M7.37682 3.69771L6.14868 3.33546C6.09571 3.31997 6.04278 3.30413 5.98982 3.28828C5.93118 3.27073 5.87251 3.25317 5.81371 3.23607C5.74763 3.21686 5.68139 3.19822 5.61484 3.18083C5.61319 3.24948 5.61234 3.31823 5.612 3.38703C5.61139 3.50791 5.61236 3.62896 5.61332 3.7499C5.61408 3.8447 5.61484 3.93943 5.61484 4.03397V5.75606C6.8027 6.62105 8.99747 6.69102 10.2517 5.86157C10.2654 5.85244 10.2789 5.84298 10.2925 5.83348C10.3327 5.80545 10.3733 5.77713 10.4174 5.75606V3.18086C10.3506 3.1995 10.2839 3.21862 10.2174 3.23803C10.1032 3.27134 9.98918 3.30553 9.87517 3.33974C9.75597 3.3755 9.63673 3.41127 9.51713 3.44605L8.45746 3.75357C7.98524 3.89648 7.97251 3.8922 7.68271 3.79478C7.60524 3.76873 7.50797 3.73603 7.37682 3.69771ZM8.5143 3.94532L8.50703 3.94752C8.2287 4.03177 8.06927 4.08002 7.9024 4.06031C7.82043 4.05063 7.74254 4.02562 7.66054 3.99829L7.6185 3.98419C7.54115 3.95819 7.44775 3.9268 7.32072 3.88968L6.09256 3.52743C6.03696 3.51117 5.98235 3.49483 5.92871 3.47877L5.81181 3.44393C5.81169 3.54349 5.81249 3.64322 5.8133 3.74393C5.81406 3.83949 5.81484 3.93594 5.81484 4.03397V5.65177C6.36297 6.01811 7.12776 6.22411 7.91352 6.2443C8.73905 6.2655 9.5573 6.08082 10.1409 5.69508C10.1485 5.69001 10.1576 5.68362 10.168 5.67635C10.1823 5.6663 10.1991 5.65458 10.2174 5.64233V3.44642C10.1236 3.474 10.0302 3.50204 9.93615 3.53025C9.81672 3.56609 9.69631 3.60222 9.57299 3.63809L8.5143 3.94532Z" fill="#4B7982" style="fill:#4B7982;fill:color(display-p3 0.2941 0.4745 0.5098);fill-opacity:1;"></path>
<path fill-rule="evenodd" clip-rule="evenodd" d="M9.73709 6.714C9.73328 6.70336 9.72832 6.68831 9.7226 6.67095C9.70193 6.60825 9.6713 6.5153 9.64864 6.49011C8.40462 6.86928 7.59173 6.83373 6.38059 6.49011C6.15812 7.09889 5.92433 8.05681 5.89998 8.77325C5.89845 8.81816 5.89775 8.86212 5.89792 8.90499C5.89802 8.92808 5.89836 8.95086 5.89897 8.97329C5.97215 8.97216 6.04476 8.97103 6.11794 8.97329H10.1348C10.1331 8.90751 10.1305 8.84077 10.1269 8.77329C10.0914 8.09411 9.9626 7.33916 9.73709 6.714ZM6.12097 8.77329H9.92664C9.89117 8.11255 9.76528 7.38157 9.54881 6.78145C9.54405 6.76816 9.53795 6.74963 9.53238 6.73273C8.9717 6.89124 8.48637 6.96538 8.00054 6.96115C7.51933 6.95696 7.04596 6.87592 6.50786 6.73258C6.31026 7.32603 6.12237 8.15105 6.10009 8.77276L6.12097 8.77329Z" fill="#4B7982" style="fill:#4B7982;fill:color(display-p3 0.2941 0.4745 0.5098);fill-opacity:1;"></path>
<path fill-rule="evenodd" clip-rule="evenodd" d="M5.30501 5.26C5.23823 5.30573 5.17257 5.35367 5.10811 5.40368C4.09501 6.18973 3.38004 7.48786 3.32206 8.77329C3.32001 8.81865 3.31878 8.864 3.31839 8.90931C3.3182 8.93064 3.3182 8.95197 3.31839 8.97329H5.58863C5.66124 8.0406 5.73102 7.27214 6.09464 6.37715C6.06405 6.3608 6.02017 6.33934 5.96859 6.31411C5.73899 6.20181 5.3568 6.01487 5.31464 5.87159C5.293 5.79819 5.29866 5.65692 5.30411 5.52092L5.30472 5.50564C5.30846 5.41184 5.3116 5.32187 5.30501 5.26ZM3.52228 8.77329C3.57776 7.60905 4.20201 6.42596 5.09938 5.66804L5.12277 5.92804C5.1406 5.98864 5.17518 6.03696 5.20566 6.07178C5.23744 6.10807 5.27474 6.1409 5.312 6.1699C5.3864 6.2278 5.47692 6.28293 5.56422 6.33151C5.65257 6.38067 5.74365 6.42641 5.82132 6.46465L5.84201 6.47482C5.54657 7.26824 5.46805 7.97564 5.4038 8.77329H3.52228Z" fill="#4B7982" style="fill:#4B7982;fill:color(display-p3 0.2941 0.4745 0.5098);fill-opacity:1;"></path>
<path fill-rule="evenodd" clip-rule="evenodd" d="M6.82412 13.3131C5.91936 12.2875 5.57039 10.5948 5.5887 9.28317C5.52942 9.27889 5.47253 9.27739 5.414 9.28073C5.4056 9.28121 5.39717 9.2818 5.38869 9.28248L5.38103 9.28313H3.31845C3.32367 9.35061 3.32991 9.41727 3.33718 9.48313C3.51009 11.0499 4.26424 12.1602 5.64432 13.0337C6.05626 13.2802 6.35671 13.377 6.71235 13.488L6.7414 13.4971C6.86644 13.5361 6.99872 13.5774 7.14532 13.6278C7.03127 13.5321 6.92429 13.4267 6.82412 13.3131ZM3.53843 9.48313C3.70853 10.9722 4.42409 12.0241 5.74915 12.8633C6.02805 13.03 6.24771 13.1227 6.47733 13.2017C6.15226 12.7626 5.91102 12.2421 5.73968 11.702C5.50664 10.9673 5.39831 10.1821 5.38872 9.48313H3.53843Z" fill="#4B7982" style="fill:#4B7982;fill:color(display-p3 0.2941 0.4745 0.5098);fill-opacity:1;"></path>
<path fill-rule="evenodd" clip-rule="evenodd" d="M9.24423 12.7492C9.81207 11.8301 10.1887 10.3868 10.1348 9.28309L5.89903 9.28313C5.82188 10.2119 6.16338 11.5869 6.57636 12.3921C6.83333 12.8925 7.30416 13.5815 7.91852 13.6272C8.49316 13.6706 8.96741 13.204 9.24423 12.7492ZM6.24893 10.8396C6.37353 11.388 6.55719 11.9164 6.75428 12.3007C6.87825 12.5422 7.05021 12.8214 7.25898 13.043C7.4699 13.2668 7.69788 13.4102 7.9336 13.4278C8.15964 13.4448 8.37508 13.3629 8.57336 13.2148C8.7726 13.066 8.94436 12.8572 9.07339 12.6452L9.07408 12.6441C9.58868 11.8111 9.94344 10.5187 9.93994 9.48309L6.08893 9.48313C6.08002 9.8861 6.14098 10.3645 6.24893 10.8396Z" fill="#4B7982" style="fill:#4B7982;fill:color(display-p3 0.2941 0.4745 0.5098);fill-opacity:1;"></path>
<path fill-rule="evenodd" clip-rule="evenodd" d="M9.15968 13.3381C9.07318 13.4386 8.98171 13.5353 8.88507 13.6278C8.97001 13.6022 9.05191 13.5782 9.13151 13.5549L9.27197 13.5137C9.69979 13.387 10.0701 13.264 10.5075 12.9862C11.7992 12.1583 12.5338 10.9607 12.6819 9.48307C12.6885 9.41696 12.694 9.35029 12.6983 9.28307L10.4423 9.28313C10.4427 9.3294 10.4427 9.37581 10.4423 9.42233C10.4307 10.8002 10.0731 12.2775 9.15968 13.3381ZM9.50022 13.2338C9.80358 13.1346 10.0814 13.0199 10.3998 12.8177C11.6342 12.0264 12.3343 10.8905 12.4809 9.48308L10.6416 9.48312C10.6216 10.7746 10.3026 12.1659 9.50022 13.2338Z" fill="#4B7982" style="fill:#4B7982;fill:color(display-p3 0.2941 0.4745 0.5098);fill-opacity:1;"></path>
<path fill-rule="evenodd" clip-rule="evenodd" d="M12.2791 11.6433C11.1961 13.353 9.16189 14.2862 7.1452 13.9217C6.95971 13.8934 6.77591 13.8404 6.59666 13.7857C4.51303 13.1503 2.96904 11.2173 3.00128 9.02746C3.02113 7.64844 3.62811 6.28745 4.6674 5.37007C4.71307 5.32955 4.7606 5.29079 4.80817 5.252C4.8752 5.19733 4.9423 5.14261 5.00435 5.08286C4.96652 5.02511 4.92806 4.96749 4.88955 4.90978C4.82794 4.81746 4.7662 4.72495 4.70666 4.63142C4.66561 4.56693 4.6256 4.50196 4.58741 4.43623C4.56325 4.4793 4.52245 4.55191 4.47294 4.63468C4.34923 4.84151 4.1711 5.1118 4.06212 5.14323L4.0468 5.13984C3.96625 5.12179 3.93845 5.09922 3.89477 5.03207C3.88899 4.89758 4.03742 4.69706 4.17923 4.50548C4.28788 4.3587 4.39265 4.21717 4.4212 4.11461C4.45229 4.00256 4.43666 3.1844 4.43112 2.89386L4.4297 2.8174C4.31377 2.77975 4.19602 2.7463 4.07838 2.71288C3.99859 2.69021 3.91884 2.66756 3.83974 2.64362C3.81379 2.6358 3.78803 2.62948 3.76303 2.62335C3.65636 2.59719 3.56337 2.57439 3.52662 2.45234L3.52892 2.43929C3.53326 2.41397 3.53846 2.38362 3.55385 2.36545C3.61447 2.29344 4.04099 2.17981 4.27998 2.11614C4.34064 2.09998 4.38922 2.08703 4.41666 2.07881L6.77418 1.37069C6.83396 1.35311 6.89394 1.33608 6.95394 1.31905C7.06532 1.28743 7.17676 1.2558 7.28699 1.22059L7.66366 1.1021C7.68799 1.09427 7.71247 1.08603 7.73708 1.07775C7.83297 1.04549 7.93086 1.01255 8.02972 0.999979C8.13874 1.00988 8.40153 1.09789 8.5926 1.16188C8.65206 1.18179 8.70457 1.19938 8.74335 1.21156L12.1287 2.23228C12.1475 2.23788 12.1712 2.24371 12.1976 2.25022C12.3149 2.27909 12.4861 2.32125 12.5213 2.41566C12.5879 2.59663 12.2494 2.66874 12.0575 2.70963C12.0191 2.71782 11.9865 2.72476 11.9642 2.73107C11.8637 2.75932 11.7574 2.78825 11.6485 2.81789C11.3376 2.9025 11.0057 2.99284 10.7276 3.08937C10.7215 3.19225 10.7236 3.2974 10.7256 3.40178C10.7266 3.45369 10.7276 3.50541 10.7276 3.55657V4.4368C10.7276 4.48798 10.7281 4.53916 10.7286 4.59031C10.7296 4.69257 10.7306 4.79474 10.7276 4.89666C10.7894 4.92944 10.8477 4.97043 10.9055 5.01112L10.95 5.04223C13.0295 6.49522 13.6286 9.51156 12.2791 11.6433ZM10.1348 9.28309C10.1887 10.3868 9.81207 11.8301 9.24423 12.7492C8.96741 13.204 8.49316 13.6706 7.91852 13.6272C7.30416 13.5815 6.83333 12.8925 6.57636 12.3921C6.16338 11.5869 5.82188 10.2119 5.89903 9.28313L10.1348 9.28309ZM9.54324 1.77128C10.2357 1.98105 11.0005 2.21272 11.4502 2.34724L11.5644 2.52452C11.5252 2.5344 11.486 2.54426 11.4475 2.55517L11.4226 2.56242L8.40299 3.44715C8.34772 3.46314 8.29279 3.48002 8.23785 3.4969C8.16872 3.51814 8.09958 3.53938 8.02973 3.55887C7.98907 3.57338 7.86856 3.52933 7.79073 3.50089C7.76865 3.49282 7.75 3.486 7.73759 3.48214L5.2909 2.7599C5.19289 2.73062 5.09514 2.70059 4.99741 2.67056C4.86581 2.63012 4.73424 2.58969 4.60209 2.55113C4.4825 2.51623 4.36244 2.48286 4.24145 2.45239C4.35356 2.4134 4.46757 2.38124 4.58163 2.34905L4.60269 2.34311C4.65822 2.32743 4.71373 2.31165 4.76901 2.29497L6.05558 1.91129C6.32011 1.83295 6.58372 1.75133 6.84729 1.66973C7.24054 1.54798 7.6337 1.42625 8.02972 1.31545C8.03515 1.31442 8.74065 1.52814 9.54324 1.77128ZM5.3081 3.38806C5.30695 3.43264 5.3058 3.47704 5.30563 3.52095L5.30619 4.77527C5.30619 4.7924 5.3068 4.80976 5.30742 4.82718C5.30841 4.85539 5.30941 4.88377 5.30783 4.91166C5.30727 4.92156 5.30639 4.9314 5.30506 4.94115L5.29598 4.94171L5.2916 4.93932C5.27014 4.92495 5.22176 4.86143 5.16201 4.77527C5.14427 4.74967 5.12551 4.72208 5.10616 4.69317C4.95898 4.47337 4.77695 4.17775 4.73778 4.11002C4.72383 3.80617 4.72665 3.44849 4.73312 3.1246C4.73454 3.05333 4.73614 2.9837 4.73778 2.91664C4.80327 2.9377 4.8698 2.95615 4.93645 2.97436L4.95715 2.98001C5.07471 3.01208 5.19236 3.04418 5.30506 3.0893C5.31329 3.18758 5.31069 3.28828 5.3081 3.38806ZM5.10811 5.40368C5.17257 5.35367 5.23823 5.30573 5.30501 5.26C5.3116 5.32187 5.30846 5.41184 5.30472 5.50564L5.30411 5.52092C5.29866 5.65692 5.293 5.79819 5.31464 5.87159C5.3568 6.01487 5.73899 6.20181 5.96859 6.31411C6.02017 6.33934 6.06405 6.3608 6.09464 6.37715C5.73102 7.27214 5.66124 8.0406 5.58863 8.97329H3.31839C3.3182 8.95197 3.3182 8.93064 3.31839 8.90931C3.31878 8.864 3.32001 8.81865 3.32206 8.77329C3.38004 7.48786 4.09501 6.18973 5.10811 5.40368ZM5.5887 9.28317C5.57039 10.5948 5.91936 12.2875 6.82412 13.3131C6.92429 13.4267 7.03127 13.5321 7.14532 13.6278C6.99872 13.5774 6.86644 13.5361 6.7414 13.4971L6.71235 13.488C6.35671 13.377 6.05626 13.2802 5.64432 13.0337C4.26424 12.1602 3.51009 11.0499 3.33718 9.48313C3.32991 9.41727 3.32367 9.35061 3.31845 9.28313H5.38103L5.38869 9.28248C5.39717 9.2818 5.4056 9.28121 5.414 9.28073C5.47253 9.27739 5.52942 9.27889 5.5887 9.28317ZM8.88507 13.6278C8.98171 13.5353 9.07318 13.4386 9.15968 13.3381C10.0731 12.2775 10.4307 10.8002 10.4423 9.42233C10.4427 9.37581 10.4427 9.3294 10.4423 9.28313L12.6983 9.28307C12.694 9.35029 12.6885 9.41696 12.6819 9.48307C12.5338 10.9607 11.7992 12.1583 10.5075 12.9862C10.0701 13.264 9.69979 13.387 9.27197 13.5137L9.13151 13.5549C9.05191 13.5782 8.97001 13.6022 8.88507 13.6278ZM10.1978 6.46989C10.2202 6.53466 10.2388 6.59852 10.2551 6.65441C10.2616 6.67648 10.2676 6.69731 10.2734 6.71645C10.355 6.98798 10.4592 7.40421 10.5338 7.82503C10.5913 8.14946 10.6341 8.49181 10.6303 8.77669C10.8927 8.77949 11.1552 8.77763 11.4194 8.77575C11.588 8.77455 11.7574 8.77335 11.9279 8.77335H12.4918C12.4918 8.77335 12.2968 7.46187 11.8633 6.73273C11.5723 6.24337 10.9055 5.57812 10.9055 5.57812C10.9055 5.57812 10.9407 5.96875 10.8828 6.01953C10.6222 6.2483 10.1978 6.46989 10.1978 6.46989ZM9.7226 6.67095C9.72832 6.68831 9.73328 6.70336 9.73709 6.714C9.9626 7.33916 10.0914 8.09411 10.1269 8.77329C10.1305 8.84077 10.1331 8.90751 10.1348 8.97329H6.11794C6.04476 8.97103 5.97215 8.97216 5.89897 8.97329C5.89836 8.95086 5.89802 8.92808 5.89792 8.90499C5.89775 8.86212 5.89845 8.81816 5.89998 8.77325C5.92433 8.05681 6.15812 7.09889 6.38059 6.49011C7.59173 6.83373 8.40462 6.86928 9.64864 6.49011C9.6713 6.5153 9.70193 6.60825 9.7226 6.67095ZM6.14868 3.33546L7.37682 3.69771C7.50797 3.73603 7.60524 3.76873 7.68271 3.79478C7.97251 3.8922 7.98524 3.89648 8.45746 3.75357L9.51713 3.44605C9.63673 3.41127 9.75597 3.3755 9.87517 3.33974C9.98918 3.30553 10.1032 3.27134 10.2174 3.23803C10.2839 3.21862 10.3506 3.1995 10.4174 3.18086V5.75606C10.3733 5.77713 10.3327 5.80545 10.2925 5.83348C10.2789 5.84298 10.2654 5.85244 10.2517 5.86157C8.99747 6.69102 6.8027 6.62105 5.61484 5.75606V4.03397C5.61484 3.93943 5.61408 3.8447 5.61332 3.7499C5.61236 3.62896 5.61139 3.50791 5.612 3.38703C5.61234 3.31823 5.61319 3.24948 5.61484 3.18083C5.68139 3.19822 5.74763 3.21686 5.81371 3.23607C5.87251 3.25317 5.93118 3.27073 5.98982 3.28828C6.04278 3.30413 6.09571 3.31997 6.14868 3.33546Z" fill="#4B7982" style="fill:#4B7982;fill:color(display-p3 0.2941 0.4745 0.5098);fill-opacity:1;"></path>
</svg><style>@media (prefers-color-scheme: light) { :root { filter: none; } }
@media (prefers-color-scheme: dark) { :root { filter: none; } }
</style></svg>