<svg width="256" height="256" viewBox="0 0 256 256" fill="none" xmlns="http://www.w3.org/2000/svg">
<g clip-path="url(#clip0)">
<line x1="153.213" y1="-117.618" x2="-91.2874" y2="305.868" stroke="black" stroke-width="0.5"/>
<line x1="239.816" y1="-67.6182" x2="-4.68391" y2="355.868" stroke="black" stroke-width="0.5"/>
<line x1="196.515" y1="-92.6182" x2="-47.9847" y2="330.868" stroke="black" stroke-width="0.5"/>
<line x1="283.117" y1="-42.6182" x2="38.6169" y2="380.868" stroke="black" stroke-width="0.5"/>
<line x1="343.738" y1="-7.61816" x2="99.238" y2="415.868" stroke="black" stroke-width="0.5"/>
<line x1="161.873" y1="-112.618" x2="-82.6273" y2="310.868" stroke="black" stroke-width="0.5"/>
<line x1="144.552" y1="-122.618" x2="-99.9476" y2="300.868" stroke="black" stroke-width="0.5"/>
<line x1="248.476" y1="-62.6182" x2="3.97624" y2="360.868" stroke="black" stroke-width="0.5"/>
<line x1="205.175" y1="-87.6182" x2="-39.3245" y2="335.868" stroke="black" stroke-width="0.5"/>
<line x1="291.777" y1="-37.6182" x2="47.277" y2="385.868" stroke="black" stroke-width="0.5"/>
<line x1="352.4" y1="-2.61816" x2="107.9" y2="420.868" stroke="black" stroke-width="0.5"/>
<line x1="170.533" y1="-107.618" x2="-73.9671" y2="315.868" stroke="black" stroke-width="0.5"/>
<line x1="257.136" y1="-57.6182" x2="12.6364" y2="365.868" stroke="black" stroke-width="0.5"/>
<line x1="213.836" y1="-82.6182" x2="-30.6644" y2="340.868" stroke="black" stroke-width="0.5"/>
<line x1="300.437" y1="-32.6182" x2="55.9372" y2="390.868" stroke="black" stroke-width="0.5"/>
<line x1="361.06" y1="2.38184" x2="116.56" y2="425.868" stroke="black" stroke-width="0.5"/>
<line x1="179.195" y1="-102.618" x2="-65.305" y2="320.868" stroke="black" stroke-width="0.5"/>
<line x1="265.797" y1="-52.6182" x2="21.2966" y2="370.868" stroke="black" stroke-width="0.5"/>
<line x1="326.418" y1="-17.6182" x2="81.9176" y2="405.868" stroke="black" stroke-width="0.5"/>
<line x1="222.496" y1="-77.6182" x2="-22.0042" y2="345.868" stroke="black" stroke-width="0.5"/>
<line x1="309.097" y1="-27.6182" x2="64.5973" y2="395.868" stroke="black" stroke-width="0.5"/>
<line x1="369.72" y1="7.38184" x2="125.22" y2="430.868" stroke="black" stroke-width="0.5"/>
<line x1="187.855" y1="-97.6182" x2="-56.6449" y2="325.868" stroke="black" stroke-width="0.5"/>
<line x1="274.457" y1="-47.6182" x2="29.9567" y2="375.868" stroke="black" stroke-width="0.5"/>
<line x1="335.078" y1="-12.6182" x2="90.5778" y2="410.868" stroke="black" stroke-width="0.5"/>
<line x1="231.156" y1="-72.6182" x2="-13.3441" y2="350.868" stroke="black" stroke-width="0.5"/>
<line x1="317.758" y1="-22.6182" x2="73.2575" y2="400.868" stroke="black" stroke-width="0.5"/>
<line x1="378.381" y1="12.3818" x2="133.881" y2="435.868" stroke="black" stroke-width="0.5"/>
<line x1="385.717" y1="21.125" x2="141.216" y2="444.611" stroke="black" stroke-width="0.5"/>
<line x1="96.3767" y1="-117.618" x2="-148.123" y2="305.868" stroke="black" stroke-width="0.5"/>
<line x1="105.037" y1="-112.618" x2="-139.463" y2="310.868" stroke="black" stroke-width="0.5"/>
<line x1="87.7165" y1="-122.618" x2="-156.784" y2="300.868" stroke="black" stroke-width="0.5"/>
<line x1="75.7165" y1="-122.618" x2="-168.784" y2="300.868" stroke="black" stroke-width="0.5"/>
<line x1="113.697" y1="-107.618" x2="-130.803" y2="315.868" stroke="black" stroke-width="0.5"/>
<line x1="122.359" y1="-102.618" x2="-122.141" y2="320.868" stroke="black" stroke-width="0.5"/>
</g>
<defs>
<clipPath id="clip0">
<rect width="256" height="256" fill="white"/>
</clipPath>
</defs>
</svg>
