<svg width="32" height="32" viewBox="0 0 32 32" fill="none" xmlns="http://www.w3.org/2000/svg">
<path d="M1 3H2V4H1V3ZM3 1H4V2H3V1Z" fill="black"/>
<path d="M1 7H2V8H1V7ZM3 5H4V6H3V5Z" fill="black"/>
<path d="M1 11H2V12H1V11ZM3 9H4V10H3V9Z" fill="black"/>
<path d="M1 15H2V16H1V15ZM3 13H4V14H3V13Z" fill="black"/>
<path d="M1 19H2V20H1V19ZM3 17H4V18H3V17Z" fill="black"/>
<path d="M1 23H2V24H1V23ZM3 21H4V22H3V21Z" fill="black"/>
<path d="M1 27H2V28H1V27ZM3 25H4V26H3V25Z" fill="black"/>
<path d="M1 31H2V32H1V31ZM3 29H4V30H3V29Z" fill="black"/>
<path d="M5 3H6V4H5V3ZM7 1H8V2H7V1Z" fill="black"/>
<path d="M5 7H6V8H5V7ZM7 5H8V6H7V5Z" fill="black"/>
<path d="M5 11H6V12H5V11ZM7 9H8V10H7V9Z" fill="black"/>
<path d="M5 15H6V16H5V15ZM7 13H8V14H7V13Z" fill="black"/>
<path d="M5 19H6V20H5V19ZM7 17H8V18H7V17Z" fill="black"/>
<path d="M5 23H6V24H5V23ZM7 21H8V22H7V21Z" fill="black"/>
<path d="M5 27H6V28H5V27ZM7 25H8V26H7V25Z" fill="black"/>
<path d="M5 31H6V32H5V31ZM7 29H8V30H7V29Z" fill="black"/>
<path d="M9 3H10V4H9V3ZM11 1H12V2H11V1Z" fill="black"/>
<path d="M9 7H10V8H9V7ZM11 5H12V6H11V5Z" fill="black"/>
<path d="M9 11H10V12H9V11ZM11 9H12V10H11V9Z" fill="black"/>
<path d="M9 15H10V16H9V15ZM11 13H12V14H11V13Z" fill="black"/>
<path d="M9 19H10V20H9V19ZM11 17H12V18H11V17Z" fill="black"/>
<path d="M9 23H10V24H9V23ZM11 21H12V22H11V21Z" fill="black"/>
<path d="M9 27H10V28H9V27ZM11 25H12V26H11V25Z" fill="black"/>
<path d="M9 31H10V32H9V31ZM11 29H12V30H11V29Z" fill="black"/>
<path d="M13 3H14V4H13V3ZM15 1H16V2H15V1Z" fill="black"/>
<path d="M13 7H14V8H13V7ZM15 5H16V6H15V5Z" fill="black"/>
<path d="M13 11H14V12H13V11ZM15 9H16V10H15V9Z" fill="black"/>
<path d="M13 15H14V16H13V15ZM15 13H16V14H15V13Z" fill="black"/>
<path d="M13 19H14V20H13V19ZM15 17H16V18H15V17Z" fill="black"/>
<path d="M13 23H14V24H13V23ZM15 21H16V22H15V21Z" fill="black"/>
<path d="M13 27H14V28H13V27ZM15 25H16V26H15V25Z" fill="black"/>
<path d="M13 31H14V32H13V31ZM15 29H16V30H15V29Z" fill="black"/>
<path d="M17 3H18V4H17V3ZM19 1H20V2H19V1Z" fill="black"/>
<path d="M17 7H18V8H17V7ZM19 5H20V6H19V5Z" fill="black"/>
<path d="M17 11H18V12H17V11ZM19 9H20V10H19V9Z" fill="black"/>
<path d="M17 15H18V16H17V15ZM19 13H20V14H19V13Z" fill="black"/>
<path d="M17 19H18V20H17V19ZM19 17H20V18H19V17Z" fill="black"/>
<path d="M17 23H18V24H17V23ZM19 21H20V22H19V21Z" fill="black"/>
<path d="M17 27H18V28H17V27ZM19 25H20V26H19V25Z" fill="black"/>
<path d="M17 31H18V32H17V31ZM19 29H20V30H19V29Z" fill="black"/>
<path d="M21 3H22V4H21V3ZM23 1H24V2H23V1Z" fill="black"/>
<path d="M21 7H22V8H21V7ZM23 5H24V6H23V5Z" fill="black"/>
<path d="M21 11H22V12H21V11ZM23 9H24V10H23V9Z" fill="black"/>
<path d="M21 15H22V16H21V15ZM23 13H24V14H23V13Z" fill="black"/>
<path d="M21 19H22V20H21V19ZM23 17H24V18H23V17Z" fill="black"/>
<path d="M21 23H22V24H21V23ZM23 21H24V22H23V21Z" fill="black"/>
<path d="M21 27H22V28H21V27ZM23 25H24V26H23V25Z" fill="black"/>
<path d="M21 31H22V32H21V31ZM23 29H24V30H23V29Z" fill="black"/>
<path d="M25 3H26V4H25V3ZM27 1H28V2H27V1Z" fill="black"/>
<path d="M25 7H26V8H25V7ZM27 5H28V6H27V5Z" fill="black"/>
<path d="M25 11H26V12H25V11ZM27 9H28V10H27V9Z" fill="black"/>
<path d="M25 15H26V16H25V15ZM27 13H28V14H27V13Z" fill="black"/>
<path d="M25 19H26V20H25V19ZM27 17H28V18H27V17Z" fill="black"/>
<path d="M25 23H26V24H25V23ZM27 21H28V22H27V21Z" fill="black"/>
<path d="M25 27H26V28H25V27ZM27 25H28V26H27V25Z" fill="black"/>
<path d="M25 31H26V32H25V31ZM27 29H28V30H27V29Z" fill="black"/>
<path d="M29 3H30V4H29V3ZM31 1H32V2H31V1Z" fill="black"/>
<path d="M29 7H30V8H29V7ZM31 5H32V6H31V5Z" fill="black"/>
<path d="M29 11H30V12H29V11ZM31 9H32V10H31V9Z" fill="black"/>
<path d="M29 15H30V16H29V15ZM31 13H32V14H31V13Z" fill="black"/>
<path d="M29 19H30V20H29V19ZM31 17H32V18H31V17Z" fill="black"/>
<path d="M29 23H30V24H29V23ZM31 21H32V22H31V21Z" fill="black"/>
<path d="M29 27H30V28H29V27ZM31 25H32V26H31V25Z" fill="black"/>
<path d="M29 31H30V32H29V31ZM31 29H32V30H31V29Z" fill="black"/>
</svg>
