<svg width="32" height="32" viewBox="0 0 32 32" fill="none" xmlns="http://www.w3.org/2000/svg">
<g clip-path="url(#clip0)">
<path fill-rule="evenodd" clip-rule="evenodd" d="M4 0.990778C4 0.443586 4.44386 0 5 0C5.55228 0 6 0.450975 6 0.990778V5.00922C6 5.55641 5.55614 6 5 6C4.44772 6 4 5.54902 4 5.00922V0.990778ZM10 8.99078C10 8.44359 10.4439 8 11 8C11.5523 8 12 8.45098 12 8.99078V13.0092C12 13.5564 11.5561 14 11 14C10.4477 14 10 13.549 10 13.0092V8.99078Z" fill="black"/>
<path fill-rule="evenodd" clip-rule="evenodd" d="M16 0.990778C16 0.443586 16.4439 0 17 0C17.5523 0 18 0.450975 18 0.990778V5.00922C18 5.55641 17.5561 6 17 6C16.4477 6 16 5.54902 16 5.00922V0.990778ZM22 8.99078C22 8.44359 22.4439 8 23 8C23.5523 8 24 8.45098 24 8.99078V13.0092C24 13.5564 23.5561 14 23 14C22.4477 14 22 13.549 22 13.0092V8.99078Z" fill="black"/>
<path fill-rule="evenodd" clip-rule="evenodd" d="M16 16.9908C16 16.4436 16.4439 16 17 16C17.5523 16 18 16.451 18 16.9908V21.0092C18 21.5564 17.5561 22 17 22C16.4477 22 16 21.549 16 21.0092V16.9908ZM22 24.9908C22 24.4436 22.4439 24 23 24C23.5523 24 24 24.451 24 24.9908V29.0092C24 29.5564 23.5561 30 23 30C22.4477 30 22 29.549 22 29.0092V24.9908Z" fill="black"/>
<path fill-rule="evenodd" clip-rule="evenodd" d="M28 16.9908C28 16.4436 28.4439 16 29 16C29.5523 16 30 16.451 30 16.9908V21.0092C30 21.5564 29.5561 22 29 22C28.4477 22 28 21.549 28 21.0092V16.9908ZM34 24.9908C34 24.4436 34.4439 24 35 24C35.5523 24 36 24.451 36 24.9908V29.0092C36 29.5564 35.5561 30 35 30C34.4477 30 34 29.549 34 29.0092V24.9908Z" fill="black"/>
<path fill-rule="evenodd" clip-rule="evenodd" d="M4 16.9908C4 16.4436 4.44386 16 5 16C5.55228 16 6 16.451 6 16.9908V21.0092C6 21.5564 5.55614 22 5 22C4.44772 22 4 21.549 4 21.0092V16.9908ZM10 24.9908C10 24.4436 10.4439 24 11 24C11.5523 24 12 24.451 12 24.9908V29.0092C12 29.5564 11.5561 30 11 30C10.4477 30 10 29.549 10 29.0092V24.9908Z" fill="black"/>
<path fill-rule="evenodd" clip-rule="evenodd" d="M28 0.990778C28 0.443586 28.4439 0 29 0C29.5523 0 30 0.450975 30 0.990778V5.00922C30 5.55641 29.5561 6 29 6C28.4477 6 28 5.54902 28 5.00922V0.990778ZM34 8.99078C34 8.44359 34.4439 8 35 8C35.5523 8 36 8.45098 36 8.99078V13.0092C36 13.5564 35.5561 14 35 14C34.4477 14 34 13.549 34 13.0092V8.99078Z" fill="black"/>
</g>
<defs>
<clipPath id="clip0">
<rect width="32" height="32" fill="white"/>
</clipPath>
</defs>
</svg>
