<svg width="64" height="64" viewBox="0 0 64 64" fill="none" xmlns="http://www.w3.org/2000/svg">
<path d="M35 31.5L48.2841 44.7841C49.2386 45.7387 49.2386 47.3296 48.2841 48.2841C47.3295 49.2387 45.7386 49.2387 44.7841 48.2841L31.5 35L18.2159 48.2841C17.2613 49.2387 15.6705 49.2387 14.7159 48.2841C13.7614 47.3296 13.7614 45.7387 14.7159 44.7841L28 31.5L14.7159 18.2159C13.7614 17.2614 13.7614 15.6705 14.7159 14.7159C15.6705 13.7614 17.2613 13.7614 18.2159 14.7159L31.5 28L44.7841 14.7159C45.7386 13.7614 47.3295 13.7614 48.2841 14.7159C49.2386 15.6705 49.2386 17.2614 48.2841 18.2159L35 31.5Z" fill="black"/>
</svg>
