<svg width="72" height="72" viewBox="0 0 72 72" fill="none" xmlns="http://www.w3.org/2000/svg">
<path d="M28.7361 46.7254C30.1407 48.4821 31.5712 50.691 32.3199 52.0252C33.2316 53.7596 33.6096 54.9307 34.2878 57.0284C34.6844 58.1773 35.0624 58.5257 35.8555 58.5257C36.7227 58.5257 37.1193 57.9401 37.4232 57.0284C38.0569 55.0605 38.5461 53.5632 39.3207 52.1363C42.3078 46.5031 47.1776 42.5005 49.9201 37.0155C49.9201 37.0155 51.725 33.6652 51.725 28.9732C51.725 24.6 49.9461 21.561 49.9461 21.561L28.7472 46.7625L28.7361 46.7254Z" fill="white"/>
<path d="M21.545 36.4224C23.2535 40.3138 26.5112 43.7234 28.7348 46.7253L40.5202 32.7534C40.5202 32.7534 38.8562 34.9325 35.8505 34.9325C32.5002 34.9325 29.7725 32.2641 29.7725 28.8916C29.7725 26.5716 31.1549 24.9631 31.1549 24.9631C22.4826 26.2529 22.9644 28.3542 21.519 36.415L21.545 36.4224Z" fill="white"/>
<path d="M40.6652 13.73C44.5937 14.9938 47.9292 17.6584 49.9305 21.5498L40.517 32.7793C40.517 32.7793 41.8993 31.1635 41.8993 28.8509C41.8993 25.4079 38.9938 22.8099 35.8584 22.8099C32.8824 22.8099 31.1887 24.9632 31.1887 24.9632C31.9114 23.3177 39.3792 14.2896 40.6763 13.7337L40.6652 13.73Z" fill="white"/>
<path d="M23.6975 18.6703C26.0398 15.8833 30.1461 13 35.8165 13C38.5553 13 40.6344 13.7264 40.6344 13.7264L31.1838 24.9559C30.5464 24.6101 24.3275 19.7673 23.6975 18.6555V18.6703Z" fill="white"/>
<path d="M21.5454 36.4224C21.5454 36.4224 20 33.3538 20 28.9361C20 24.7482 21.6381 21.0792 23.7061 18.7073L31.1924 25.0076L21.5566 36.4224H21.5454Z" fill="white"/>
</svg>
