<svg width="64" height="64" viewBox="0 0 64 64" fill="none" xmlns="http://www.w3.org/2000/svg">
<path fill-rule="evenodd" clip-rule="evenodd" d="M31.5 53C42.8218 53 52 43.8218 52 32.5C52 21.1782 42.8218 12 31.5 12C20.1782 12 11 21.1782 11 32.5C11 43.8218 20.1782 53 31.5 53ZM31.5 58C45.5833 58 57 46.5833 57 32.5C57 18.4167 45.5833 7 31.5 7C17.4167 7 6 18.4167 6 32.5C6 46.5833 17.4167 58 31.5 58Z" fill="black" style="fill:black;fill-opacity:1;"/>
<path d="M31.736 25.472C29.944 25.472 28.76 24.416 28.76 22.816C28.76 21.216 29.944 20.16 31.736 20.16C33.528 20.16 34.712 21.216 34.712 22.816C34.712 24.416 33.528 25.472 31.736 25.472ZM29.24 44V27.808H34.232V44H29.24Z" fill="black" style="fill:black;fill-opacity:1;"/>
</svg>
