<svg width="1000" height="1000" viewBox="0 0 1000 1000" fill="none" xmlns="http://www.w3.org/2000/svg">
<circle cx="491.5" cy="321.5" r="197.5" stroke="white" stroke-width="20"/>
<path d="M346.753 123C284.515 167.8 244 240.814 244 323.277C244 459.538 354.624 570 491.086 570C573.881 570 647.164 529.337 692 466.92" stroke="white" stroke-width="20"/>
<line x1="357.929" y1="188.071" x2="286.929" y2="117.071" stroke="white" stroke-width="20"/>
<line x1="702.92" y1="534.063" x2="625.014" y2="455.969" stroke="white" stroke-width="20"/>
<path d="M181 676H793.5C787.333 686.833 775.3 713.2 776.5 732C777.7 750.8 788.333 772.167 793.5 780.5H181C174.5 774.5 161.5 756.4 161.5 732C161.5 707.6 174.5 684.5 181 676Z" stroke="white" stroke-width="20" stroke-linejoin="round"/>
<path d="M255.5 780.5C251.167 775.333 242.2 757.9 241 729.5C239.8 701.1 250.167 684.333 255.5 679.5" stroke="white" stroke-width="20"/>
<path d="M440.596 780.5C436.262 775.333 427.296 757.9 426.096 729.5C424.896 701.1 435.262 684.333 440.596 679.5" stroke="white" stroke-width="20"/>
<path d="M533.596 780.5C529.262 775.333 520.296 757.9 519.096 729.5C517.896 701.1 528.262 684.333 533.596 679.5" stroke="white" stroke-width="20"/>
<line x1="778" y1="727" x2="519" y2="727" stroke="white" stroke-width="20"/>
<path fill-rule="evenodd" clip-rule="evenodd" d="M594.114 634.438C573.241 633.829 559.631 633.959 534.113 634.205L534.111 634.205C526.372 634.279 517.538 634.364 507.074 634.442L507 624.47L506.929 634.5C495.805 634.422 486.41 634.337 478.177 634.263H478.177C451.017 634.018 436.507 633.887 414.273 634.496C404.445 634.765 397.412 640.581 392.214 649.871C386.923 659.325 384.491 670.954 383.977 678.665L364.021 677.335C364.674 667.545 367.642 652.825 374.76 640.104C381.97 627.219 394.353 615.034 413.725 614.504C436.35 613.884 451.281 614.019 478.567 614.265L478.567 614.265C486.734 614.339 496.007 614.423 506.925 614.499L506.925 614.442C517.236 614.366 525.99 614.281 533.697 614.207L533.697 614.207C559.35 613.96 573.409 613.825 594.697 614.446C613.499 614.995 625.244 627.564 631.935 640.301C638.6 652.987 641.371 667.65 641.98 677.375L622.019 678.625C621.531 670.831 619.227 659.115 614.23 649.602C609.259 640.14 602.755 634.69 594.114 634.438Z" fill="white"/>
<line x1="479" y1="573" x2="479" y2="627" stroke="white" stroke-width="20"/>
<line x1="533" y1="573" x2="533" y2="627" stroke="white" stroke-width="20"/>
<path d="M452.5 134.5L459 157.5V178V195.5V207H476.5H499.5L510.5 195.5V187L515.5 171L522.5 157.5V144.5V134.5" stroke="white" stroke-width="20"/>
<path d="M688.5 334L659 318L625.5 360.5L611 399L595 434H576.5L556.5 348.5H520.5V310L544.5 268.5L532.5 244.5L564.5 235V212.5L576.5 192.5L604.5 212.5L625.5 181.5" stroke="white" stroke-width="20" stroke-linejoin="round"/>
<path d="M299 308L347 347.5V364L364 379.5L385 403L392.5 431L418.5 463L427 410L440.5 386.5L444 368.5L423 358L404.5 347.5L364 337.5L332 315L328.5 299.5L354 289.5L368.5 270.5L404.5 266L409 223.5L418.5 198.5V169.5H392.5L378.5 155.5" stroke="white" stroke-width="20" stroke-linejoin="round"/>
</svg>
