<svg width="64" height="64" viewBox="0 0 64 64" fill="none" xmlns="http://www.w3.org/2000/svg">
<path d="M33.6 28.9444C33.9 29.1444 34.3 29.2444 34.6 29.2444C35.3 29.2444 35.9 28.8444 36.3 28.3444L39.1 23.7444C41 20.6444 44.3 18.8444 47.9 18.8444H51.5V23.4444C51.5 24.0444 51.9 24.5444 52.4 24.8444C52.6 24.9444 52.8 24.9444 53 24.9444C53.4 24.9444 53.8 24.7444 54.1 24.5444L60.6 18.0444C61.2 17.4444 61.2 16.5444 60.6 15.9444L54.1 9.44444C53.7 9.04444 53 8.84444 52.5 9.14444C51.8 9.14444 51.5 9.64444 51.5 10.2444V14.8444H48C43 14.8444 38.4 17.4444 35.8 21.6444L33 26.2444C32.7 26.7444 32.6 27.2444 32.8 27.7444C32.8 28.2444 33.2 28.7444 33.6 28.9444Z" fill="black" style="fill:black;fill-opacity:1;"/>
<path d="M29.9 35.1444C29.6 34.9444 29.2 34.8444 28.9 34.8444C28.2 34.8444 27.6 35.2444 27.2 35.7444L24.4 40.3444C22.5 43.4444 19.2 45.2444 15.6 45.2444H4C2.9 45.2444 2 46.1444 2 47.2444C2 48.3444 2.9 49.2444 4 49.2444H15.5C20.5 49.2444 25.1 46.6444 27.7 42.4444L30.5 37.8444C31.1 36.9444 30.8 35.6444 29.9 35.1444Z" fill="black" style="fill:black;fill-opacity:1;"/>
<path d="M54 39.6444C53.6 39.2444 52.9 39.0444 52.4 39.3444C51.8 39.5444 51.5 40.1444 51.5 40.7444V45.3444H48C44.4 45.3444 41 43.4444 39.2 40.4444L27.7 21.6444C25.1 17.4444 20.4 14.8444 15.5 14.8444H4C2.9 14.8444 2 15.7444 2 16.8444C2 17.9444 2.9 18.8444 4 18.8444H15.5C19.1 18.8444 22.5 20.7444 24.3 23.7444L35.7 42.4444C38.3 46.6444 43 49.2444 47.9 49.2444H51.5V53.8444C51.5 54.4444 51.9 54.9444 52.4 55.2444C52.6 55.3444 52.8 55.3444 53 55.3444C53.4 55.3444 53.8 55.1444 54.1 54.9444L60.6 48.4444C61.2 47.8444 61.2 46.9444 60.6 46.3444L54 39.6444Z" fill="black" style="fill:black;fill-opacity:1;"/>
</svg>
