<svg width="71" height="72" viewBox="0 0 71 72" fill="none" xmlns="http://www.w3.org/2000/svg">
<path d="M35.0426 31.8181V40.7254H47.4438C46.8992 43.59 45.2651 46.0155 42.8142 47.6464L50.2926 53.4382C54.6498 49.4238 57.1636 43.5274 57.1636 36.5229C57.1636 34.892 57.017 33.3237 56.7446 31.8184L35.0426 31.8181Z" fill="#4B7982"/>
<path d="M22.1287 40.3777L20.442 41.6664L14.4717 46.3082C18.2633 53.8145 26.0345 59 35.0421 59C41.2635 59 46.48 56.9509 50.2926 53.4382L42.8142 47.6464C40.7613 49.0264 38.1423 49.8628 35.0421 49.8628C29.0509 49.8628 23.9607 45.8274 22.1381 40.391L22.1287 40.3777Z" fill="#4B7982"/>
<path d="M14.4717 25.6918C12.9007 28.7862 12 32.2781 12 35.9999C12 39.7216 12.9007 43.2137 14.4717 46.3082C14.4717 46.3289 22.1388 40.3697 22.1388 40.3697C21.678 38.9897 21.4056 37.5262 21.4056 35.9996C21.4056 34.4731 21.678 33.0095 22.1388 31.6295L14.4717 25.6918Z" fill="#4B7982"/>
<path d="M35.0425 22.1582C38.4362 22.1582 41.4527 23.3291 43.8617 25.5873L50.4603 19.001C46.4592 15.2792 41.2642 13 35.0425 13C26.0349 13 18.2633 18.1645 14.4717 25.6918L22.1388 31.6295C23.9612 26.1931 29.0514 22.1582 35.0425 22.1582Z" fill="#4B7982"/>
</svg>
