<svg width="72" height="72" viewBox="0 0 72 72" fill="none" xmlns="http://www.w3.org/2000/svg">
<path fill-rule="evenodd" clip-rule="evenodd" d="M35.9972 13C23.3071 13 13 23.308 13 35.9972C13 48.692 23.308 59 35.9972 59C48.6873 59 59 48.692 59 35.9972C59 23.3071 48.6873 13 35.9972 13ZM37.0426 15.4466C37.727 15.6545 38.4085 16.0712 39.0936 16.7152C40.1266 17.6858 41.1231 19.1666 41.968 21.044C42.2549 21.6818 42.524 22.3654 42.7738 23.0884H37.0426L37.0426 15.4466ZM34.9518 15.447V23.0884H29.2225C29.4722 22.3654 29.7413 21.6817 30.0283 21.044C30.8735 19.1666 31.8703 17.6855 32.9034 16.7152C33.5878 16.072 34.2686 15.6553 34.9518 15.447ZM30.9683 15.6982C29.8744 16.8742 28.9279 18.3961 28.122 20.186C27.7162 21.0874 27.3465 22.0581 27.0157 23.0889H19.5424C22.3752 19.4809 26.3707 16.8308 30.9687 15.6986L30.9683 15.6982ZM41.0289 15.6986C45.6261 16.8311 49.6221 19.4812 52.4552 23.0885H44.98C44.6496 22.058 44.2799 21.0874 43.8744 20.186C43.069 18.3961 42.1227 16.8745 41.0289 15.6986ZM18.0971 25.1796H26.4215C25.6853 28.113 25.2452 31.4271 25.1726 34.9527H15.1167C15.2917 31.3856 16.3579 28.055 18.0975 25.1796H18.0971ZM28.5861 25.1796H34.9525V34.9527H27.2644C27.3428 31.3823 27.8212 28.0478 28.5865 25.1796H28.5861ZM37.0429 25.1796H43.4104C44.1754 28.0478 44.6527 31.3822 44.731 34.9527H37.0429V25.1796ZM45.5748 25.1796H53.9017C55.6421 28.0554 56.709 31.3855 56.884 34.9527H46.8224C46.7495 31.4271 46.3105 28.1131 45.5747 25.1796H45.5748ZM15.1166 37.0427H25.1725C25.2444 40.5161 25.6721 43.7843 26.3879 46.6851H18.0168C16.3245 43.8396 15.2886 40.5561 15.1166 37.0427ZM27.2644 37.0427H34.9525V46.6851H28.5508C27.8062 43.8465 27.3417 40.559 27.2644 37.0427ZM37.0431 37.0427H44.7312C44.6539 40.5591 44.1901 43.8466 43.4463 46.6851H37.043L37.0431 37.0427ZM46.8228 37.0427H56.8844C56.7119 40.5566 55.6753 43.8396 53.9823 46.6851H53.9765H45.6086C46.324 43.7842 46.7509 40.516 46.8228 37.0427ZM19.4384 48.776H26.9745C27.3157 49.8564 27.6997 50.873 28.1227 51.8137C28.9285 53.6041 29.875 55.1263 30.9693 56.3023C26.3145 55.1559 22.277 52.4537 19.4385 48.776H19.4384ZM29.177 48.776H34.9527V56.5531C34.2694 56.3453 33.5886 55.9285 32.9042 55.2849C31.8717 54.3143 30.8748 52.8331 30.0295 50.9553C29.7247 50.2779 29.4396 49.549 29.177 48.7759L29.177 48.776ZM37.0434 48.776H42.8209C42.5584 49.5494 42.2736 50.2783 41.9688 50.9558C41.124 52.8336 40.1271 54.3147 39.0945 55.2854C38.4093 55.9293 37.7278 56.3461 37.0434 56.5539L37.0434 48.776ZM45.0228 48.776H52.5607C49.7214 52.453 45.6839 55.1552 41.029 56.3015C42.1233 55.1256 43.0694 53.6033 43.8749 51.8134C44.2978 50.873 44.6814 49.8564 45.0224 48.776H45.0228Z" fill="#4B7982"/>
</svg>
