<svg width="72" height="72" viewBox="0 0 72 72" fill="none" xmlns="http://www.w3.org/2000/svg">
<path d="M34.8296 51.2593V58.9436H36.2623V51.2593" fill="#4B7982"/>
<path d="M32.7485 51.5848L35.5487 46.7007L38.349 51.5848" fill="#4B7982"/>
<path d="M23.8703 38.833H16.186V40.2657H23.8703" fill="#4B7982"/>
<path d="M23.5425 36.7485L28.4266 39.5487L23.5425 42.349" fill="#4B7982"/>
<path d="M47.2456 40.2642H54.9299V38.8315H47.2456" fill="#4B7982"/>
<path d="M47.5721 42.3484L42.688 39.5482L47.5721 36.748" fill="#4B7982"/>
<path d="M26.6694 47.0337L21.2358 52.4673L22.2489 53.4804L27.6825 48.0467" fill="#4B7982"/>
<path d="M24.9609 45.7904L30.3945 44.3169L28.921 49.7505" fill="#4B7982"/>
<path d="M27.2611 31.2754L21.8275 25.8418L20.8145 26.8549L26.2481 32.2885" fill="#4B7982"/>
<path d="M28.4982 29.5718L29.9718 35.0054L24.5381 33.5319" fill="#4B7982"/>
<path d="M44.2968 31.9013L49.7304 26.4677L48.7174 25.4546L43.2837 30.8883" fill="#4B7982"/>
<path d="M45.9956 33.1442L40.562 34.6177L42.0355 29.1841" fill="#4B7982"/>
<path d="M43.6235 47.8134L49.0571 53.247L50.0702 52.234L44.6365 46.8003" fill="#4B7982"/>
<path d="M42.3866 49.5172L40.9131 44.0835L46.3467 45.5571" fill="#4B7982"/>
<path fill-rule="evenodd" clip-rule="evenodd" d="M44.6822 22.7952C46.1507 23.4463 47.7901 24.3274 49.2778 25.8151C51.9918 28.5291 53.84 31.9869 54.5888 35.7514C55.3376 39.5158 54.9533 43.4177 53.4845 46.9637C52.0157 50.5097 49.5284 53.5405 46.337 55.6729C43.1457 57.8053 39.3937 58.9434 35.5556 58.9434C31.7174 58.9434 27.9654 57.8053 24.7741 55.6729C21.5828 53.5405 19.0954 50.5097 17.6266 46.9637C16.1578 43.4177 15.7735 39.5158 16.5223 35.7514C17.2711 31.9869 19.1194 28.5291 21.8334 25.8151L25.7014 29.6831C23.7524 31.6321 22.4251 34.1152 21.8874 36.8185C21.3497 39.5218 21.6256 42.3239 22.6804 44.8704C23.7352 47.4168 25.5214 49.5933 27.8132 51.1246C30.1049 52.6559 32.7993 53.4733 35.5556 53.4733C38.3118 53.4733 41.0062 52.6559 43.298 51.1246C45.5897 49.5933 47.3759 47.4168 48.4307 44.8704C49.4855 42.3239 49.7615 39.5218 49.2237 36.8185C48.686 34.1152 47.3588 31.6321 45.4098 29.6831C44.5951 28.8684 43.6385 28.3162 42.4651 27.796C41.9898 27.5853 41.5198 27.3966 41.0028 27.1891C40.8609 27.1322 40.7156 27.0738 40.5656 27.0132C39.8983 26.7436 39.1625 26.4377 38.4331 26.0696C36.9419 25.3171 35.3961 24.266 34.141 22.521C32.8964 20.7906 32.0829 18.5812 31.6944 15.7318L37.1144 14.9927C37.4165 17.2085 37.9903 18.5045 38.5818 19.3269C39.1628 20.1347 39.9021 20.6837 40.8975 21.186C41.4114 21.4453 41.9693 21.6805 42.6151 21.9415C42.7372 21.9908 42.864 22.0417 42.9943 22.094C43.522 22.3057 44.1085 22.5409 44.6822 22.7952Z" fill="#4B7982"/>
<path d="M34.0631 6C34.0631 6 31.7188 14.7914 28.8534 18.0474C25.9881 21.3035 36.4075 14.0099 39.924 17.7218C43.4406 21.4337 34.0631 6 34.0631 6Z" fill="#4B7982"/>
<path d="M35.5536 46.0497C39.1501 46.0497 42.0657 43.1341 42.0657 39.5376C42.0657 35.941 39.1501 33.0254 35.5536 33.0254C31.957 33.0254 29.0415 35.941 29.0415 39.5376C29.0415 43.1341 31.957 46.0497 35.5536 46.0497Z" fill="#4B7982"/>
</svg>
