<svg width="72" height="72" viewBox="0 0 72 72" fill="none" xmlns="http://www.w3.org/2000/svg">
<path d="M9 52.9976H10.9247V20H9V52.9976ZM12.978 52.9976H18.8803V20H12.978V52.9976ZM20.8055 20V52.9965H26.7078V20H20.8055Z" fill="white"/>
<path d="M56.4869 53H58.412V20H56.4869V53ZM60.4653 20V53H62.39V20H60.4653ZM28.6926 53H30.6174V20H28.6926V53ZM32.671 20V52.9988H34.5962V20H32.671Z" fill="white"/>
<path d="M36.5835 53H42.4866V20H36.5835V53ZM44.411 53H46.4638V20H44.411V53V53ZM48.389 20V52.9988H54.2913V20H48.389Z" fill="white"/>
</svg>
