<svg width="72" height="72" viewBox="0 0 72 72" fill="none" xmlns="http://www.w3.org/2000/svg">
<path fill-rule="evenodd" clip-rule="evenodd" d="M61 20.5546C61 20.7425 60.9417 20.9121 60.8296 21.0679C60.7129 21.2192 60.5918 21.2971 60.4528 21.2971C59.3359 21.4071 58.4164 21.7738 57.7077 22.4017C56.9945 23.025 56.2633 24.2212 55.5053 25.9812L43.9327 52.6288C43.8565 52.8763 43.6456 53 43.2958 53C43.0222 53 42.8113 52.8763 42.6588 52.6288L36.1683 38.7596L28.7045 52.6288C28.552 52.8763 28.3412 53 28.0675 53C27.7356 53 27.5158 52.8763 27.4082 52.6288L16.0375 25.9812C15.3288 24.3267 14.5797 23.1717 13.7902 22.5163C13.0053 21.8608 11.9063 21.4529 10.5024 21.2971C10.3813 21.2971 10.2646 21.2329 10.1615 21.1C10.0538 20.9717 10 20.8204 10 20.6508C10 20.2154 10.1211 20 10.3633 20C11.377 20 12.4356 20.0458 13.5435 20.1375C14.5707 20.2337 15.5396 20.2796 16.4456 20.2796C17.3697 20.2796 18.4596 20.2337 19.7156 20.1375C21.0298 20.0458 22.196 20 23.2098 20C23.452 20 23.5731 20.2154 23.5731 20.6508C23.5731 21.0817 23.4968 21.2971 23.3488 21.2971C22.3351 21.375 21.5367 21.6408 20.9536 22.0854C20.3704 22.5346 20.0789 23.1213 20.0789 23.85C20.0789 24.2213 20.2 24.6842 20.4422 25.2388L29.8393 46.9225L35.1726 36.6283L30.2026 25.9812C29.31 24.0837 28.5744 22.8554 28.0003 22.3054C27.4261 21.76 26.5559 21.4208 25.3897 21.2971C25.2821 21.2971 25.1834 21.2329 25.0847 21.1C24.986 20.9717 24.9367 20.8204 24.9367 20.6508C24.9367 20.2154 25.0398 20 25.2551 20C26.2689 20 27.1974 20.0458 28.0451 20.1375C28.8615 20.2337 29.7317 20.2796 30.6557 20.2796C31.5617 20.2796 32.5216 20.2337 33.5354 20.1375C34.5805 20.0458 35.6077 20 36.6214 20C36.8636 20 36.9847 20.2154 36.9847 20.6508C36.9847 21.0817 36.9129 21.2971 36.7604 21.2971C34.733 21.4392 33.7193 22.0258 33.7193 23.0617C33.7193 23.5246 33.9525 24.2442 34.4235 25.2158L37.7113 32.0358L40.9813 25.7979C41.4343 24.9179 41.6631 24.1754 41.6631 23.5704C41.6631 22.1496 40.6493 21.3933 38.6219 21.2971C38.438 21.2971 38.3483 21.0817 38.3483 20.6508C38.3483 20.495 38.3931 20.3483 38.4829 20.2108C38.577 20.0687 38.6668 20 38.7565 20C39.4831 20 40.3757 20.0458 41.4343 20.1375C42.448 20.2337 43.2823 20.2796 43.9327 20.2796C44.3992 20.2796 45.09 20.2383 45.996 20.1604C47.1443 20.055 48.1087 20 48.8802 20C49.0596 20 49.1493 20.1833 49.1493 20.5546C49.1493 21.0496 48.9834 21.2971 48.6515 21.2971C47.4718 21.4208 46.5208 21.7554 45.8032 22.2962C45.0855 22.8371 44.1884 24.0654 43.1164 25.9812L38.7565 34.2175L44.6594 46.5054L53.3747 25.7979C53.6752 25.0417 53.8277 24.345 53.8277 23.7125C53.8277 22.1954 52.814 21.3933 50.7865 21.2971C50.6026 21.2971 50.5129 21.0817 50.5129 20.6508C50.5129 20.2154 50.6475 20 50.9211 20C51.6612 20 52.5404 20.0458 53.5541 20.1375C54.4916 20.2337 55.281 20.2796 55.9135 20.2796C56.5818 20.2796 57.3533 20.2337 58.228 20.1375C59.1385 20.0458 59.9549 20 60.6815 20C60.8923 20 61 20.1833 61 20.5546Z" fill="#4B7982"/>
</svg>
