<svg width="72" height="72" viewBox="0 0 72 72" fill="none" xmlns="http://www.w3.org/2000/svg">
<path d="M34.8298 51.2593V58.9436H36.2625V51.2593" fill="white"/>
<path d="M32.7485 51.5848L35.5487 46.7007L38.349 51.5848" fill="white"/>
<path d="M23.8701 38.833L16.1858 38.833L16.1858 40.2657L23.8701 40.2657" fill="white"/>
<path d="M23.5424 36.7485L28.4265 39.5487L23.5424 42.349" fill="white"/>
<path d="M47.2456 40.2644L54.9299 40.2644L54.9299 38.8317L47.2456 38.8317" fill="white"/>
<path d="M47.5723 42.3484L42.6882 39.5482L47.5723 36.748" fill="white"/>
<path d="M26.6694 47.0337L21.2358 52.4673L22.2489 53.4804L27.6825 48.0467" fill="white"/>
<path d="M24.961 45.7902L30.3946 44.3167L28.9211 49.7503" fill="white"/>
<path d="M27.2612 31.2756L21.8276 25.842L20.8146 26.8551L26.2482 32.2887" fill="white"/>
<path d="M28.4983 29.5718L29.9719 35.0054L24.5382 33.5319" fill="white"/>
<path d="M44.2969 31.9011L49.7305 26.4675L48.7175 25.4544L43.2838 30.8881" fill="white"/>
<path d="M45.9958 33.1441L40.5622 34.6176L42.0357 29.184" fill="white"/>
<path d="M43.6233 47.8135L49.0569 53.2471L50.07 52.2341L44.6363 46.8004" fill="white"/>
<path d="M42.3867 49.5171L40.9132 44.0834L46.3468 45.557" fill="white"/>
<path fill-rule="evenodd" clip-rule="evenodd" d="M44.6822 22.7953C46.1507 23.4464 47.7901 24.3275 49.2778 25.8152C51.9918 28.5292 53.84 31.987 54.5888 35.7515C55.3376 39.5159 54.9533 43.4178 53.4845 46.9638C52.0157 50.5098 49.5284 53.5406 46.337 55.673C43.1457 57.8054 39.3937 58.9435 35.5556 58.9435C31.7174 58.9435 27.9654 57.8054 24.7741 55.673C21.5828 53.5406 19.0954 50.5098 17.6266 46.9638C16.1578 43.4178 15.7735 39.5159 16.5223 35.7515C17.2711 31.987 19.1194 28.5292 21.8334 25.8152L25.7014 29.6832C23.7524 31.6322 22.4251 34.1153 21.8874 36.8186C21.3497 39.5219 21.6256 42.324 22.6804 44.8705C23.7352 47.4169 25.5214 49.5934 27.8132 51.1247C30.1049 52.656 32.7993 53.4734 35.5556 53.4734C38.3118 53.4734 41.0062 52.656 43.298 51.1247C45.5897 49.5934 47.3759 47.4169 48.4307 44.8705C49.4855 42.324 49.7615 39.5219 49.2237 36.8186C48.686 34.1153 47.3588 31.6322 45.4098 29.6832C44.5951 28.8685 43.6385 28.3163 42.4651 27.7961C41.9898 27.5854 41.5198 27.3967 41.0028 27.1892C40.8609 27.1323 40.7156 27.0739 40.5656 27.0133C39.8983 26.7437 39.1625 26.4378 38.4331 26.0697C36.9419 25.3172 35.3961 24.2661 34.141 22.5211C32.8964 20.7907 32.0829 18.5813 31.6944 15.7319L37.1144 14.9928C37.4165 17.2086 37.9903 18.5046 38.5818 19.327C39.1628 20.1348 39.9021 20.6838 40.8975 21.1861C41.4114 21.4454 41.9693 21.6806 42.6151 21.9416C42.7372 21.9909 42.864 22.0418 42.9943 22.0941C43.522 22.3058 44.1085 22.541 44.6822 22.7953Z" fill="white"/>
<path d="M34.0631 6C34.0631 6 31.7188 14.7914 28.8534 18.0474C25.9881 21.3035 36.4075 14.0099 39.924 17.7218C43.4406 21.4337 34.0631 6 34.0631 6Z" fill="white"/>
<path d="M35.5534 46.0499C39.1499 46.0499 42.0655 43.1343 42.0655 39.5378C42.0655 35.9412 39.1499 33.0256 35.5534 33.0256C31.9568 33.0256 29.0413 35.9412 29.0413 39.5378C29.0413 43.1343 31.9568 46.0499 35.5534 46.0499Z" fill="white"/>
</svg>
